<svg xmlns="http://www.w3.org/2000/svg" height="359pt" version="1.1" viewBox="0 -1 359.27255 359" width="359pt">
<g id="surface1">
<path d="M 144.140625 209.03125 L 215.699219 209.03125 C 222.289062 209.03125 227.625 214.371094 227.625 220.957031 L 227.625 340.21875 C 227.625 346.808594 222.285156 352.144531 215.699219 352.144531 L 144.140625 352.144531 C 137.554688 352.144531 132.214844 346.804688 132.214844 340.21875 L 132.214844 220.957031 C 132.214844 214.371094 137.554688 209.03125 144.140625 209.03125 Z M 144.140625 209.03125 " style=" stroke:none;fill-rule:nonzero;fill:rgb(100%,92.156863%,60%);fill-opacity:1;" />
<path d="M 269.371094 149.398438 L 340.929688 149.398438 C 347.515625 149.398438 352.855469 154.738281 352.855469 161.324219 L 352.855469 340.21875 C 352.855469 346.808594 347.515625 352.144531 340.929688 352.144531 L 269.371094 352.144531 C 262.78125 352.144531 257.445312 346.804688 257.445312 340.21875 L 257.445312 161.324219 C 257.441406 154.738281 262.78125 149.398438 269.371094 149.398438 Z M 269.371094 149.398438 " style=" stroke:none;fill-rule:nonzero;fill:rgb(0%,84.313725%,87.45098%);fill-opacity:1;" />
<path d="M 18.914062 179.214844 L 90.472656 179.214844 C 97.058594 179.214844 102.398438 184.554688 102.398438 191.140625 L 102.398438 340.21875 C 102.398438 346.808594 97.058594 352.144531 90.472656 352.144531 L 18.914062 352.144531 C 12.328125 352.144531 6.988281 346.804688 6.988281 340.21875 L 6.988281 191.140625 C 6.988281 184.554688 12.328125 179.214844 18.914062 179.214844 Z M 18.914062 179.214844 " style=" stroke:none;fill-rule:nonzero;fill:rgb(0%,84.313725%,87.45098%);fill-opacity:1;" />
<path d="M 156.070312 36.097656 C 156.070312 49.269531 145.390625 59.949219 132.214844 59.949219 C 119.042969 59.949219 108.363281 49.269531 108.363281 36.097656 C 108.363281 22.921875 119.042969 12.246094 132.214844 12.246094 C 145.390625 12.246094 156.070312 22.921875 156.070312 36.097656 Z M 156.070312 36.097656 " style=" stroke:none;fill-rule:nonzero;fill:rgb(100%,31.372549%,13.72549%);fill-opacity:1;" />
<path d="M 269.371094 113.617188 C 269.371094 126.792969 258.691406 137.472656 245.515625 137.472656 C 232.34375 137.472656 221.664062 126.792969 221.664062 113.617188 C 221.664062 100.445312 232.34375 89.765625 245.515625 89.765625 C 258.691406 89.765625 269.371094 100.445312 269.371094 113.617188 Z M 269.371094 113.617188 " style=" stroke:none;fill-rule:nonzero;fill:rgb(100%,31.372549%,13.72549%);fill-opacity:1;" />
<path d="M 352.855469 30.132812 C 352.855469 43.308594 342.175781 53.988281 329 53.988281 C 315.828125 53.988281 305.148438 43.308594 305.148438 30.132812 C 305.148438 16.960938 315.828125 6.28125 329 6.28125 C 342.175781 6.28125 352.855469 16.960938 352.855469 30.132812 Z M 352.855469 30.132812 " style=" stroke:none;fill-rule:nonzero;fill:rgb(100%,31.372549%,13.72549%);fill-opacity:1;" />
<path d="M 54.695312 131.507812 C 54.695312 144.679688 44.015625 155.359375 30.839844 155.359375 C 17.667969 155.359375 6.988281 144.679688 6.988281 131.507812 C 6.988281 118.335938 17.667969 107.65625 30.839844 107.65625 C 44.015625 107.65625 54.695312 118.335938 54.695312 131.507812 Z M 54.695312 131.507812 " style=" stroke:none;fill-rule:nonzero;fill:rgb(100%,31.372549%,13.72549%);fill-opacity:1;" />
<path d="M 215.699219 203.066406 L 144.140625 203.066406 C 134.261719 203.066406 126.253906 211.078125 126.253906 220.957031 L 126.253906 340.21875 C 126.253906 350.101562 134.261719 358.109375 144.140625 358.109375 L 215.699219 358.109375 C 225.582031 358.109375 233.589844 350.097656 233.589844 340.21875 L 233.589844 220.957031 C 233.589844 211.078125 225.582031 203.066406 215.699219 203.066406 Z M 221.664062 340.21875 C 221.664062 343.511719 218.996094 346.183594 215.699219 346.183594 L 144.140625 346.183594 C 140.847656 346.183594 138.179688 343.511719 138.179688 340.21875 L 138.179688 220.957031 C 138.179688 217.664062 140.847656 214.992188 144.140625 214.992188 L 215.699219 214.992188 C 218.996094 214.992188 221.664062 217.664062 221.664062 220.957031 Z M 221.664062 340.21875 " style=" stroke:none;fill-rule:nonzero;fill:rgb(13.72549%,12.156863%,12.54902%);fill-opacity:1;" />
<path d="M 340.929688 143.433594 L 269.371094 143.433594 C 259.488281 143.433594 251.480469 151.445312 251.480469 161.324219 L 251.480469 340.21875 C 251.480469 350.101562 259.492188 358.109375 269.371094 358.109375 L 340.929688 358.109375 C 350.808594 358.109375 358.816406 350.097656 358.816406 340.21875 L 358.816406 161.324219 C 358.816406 151.445312 350.808594 143.433594 340.929688 143.433594 Z M 346.890625 340.21875 C 346.890625 343.511719 344.222656 346.183594 340.925781 346.183594 L 269.367188 346.183594 C 266.074219 346.183594 263.40625 343.511719 263.40625 340.21875 L 263.40625 161.324219 C 263.40625 158.03125 266.074219 155.359375 269.367188 155.359375 L 340.925781 155.359375 C 344.222656 155.359375 346.890625 158.03125 346.890625 161.324219 Z M 346.890625 340.21875 " style=" stroke:none;fill-rule:nonzero;fill:rgb(13.72549%,12.156863%,12.54902%);fill-opacity:1;" />
<path d="M 90.472656 173.25 L 18.914062 173.25 C 9.035156 173.25 1.023438 181.261719 1.023438 191.140625 L 1.023438 340.222656 C 1.023438 350.101562 9.035156 358.109375 18.914062 358.109375 L 90.472656 358.109375 C 100.351562 358.109375 108.363281 350.101562 108.363281 340.222656 L 108.363281 191.140625 C 108.363281 181.261719 100.351562 173.25 90.472656 173.25 Z M 96.4375 340.21875 C 96.4375 343.511719 93.765625 346.183594 90.472656 346.183594 L 18.914062 346.183594 C 15.621094 346.183594 12.949219 343.511719 12.949219 340.21875 L 12.949219 191.140625 C 12.949219 187.847656 15.621094 185.175781 18.914062 185.175781 L 90.472656 185.175781 C 93.765625 185.175781 96.4375 187.847656 96.4375 191.140625 Z M 96.4375 340.21875 " style=" stroke:none;fill-rule:nonzero;fill:rgb(13.72549%,12.156863%,12.54902%);fill-opacity:1;" />
<path d="M 275.332031 113.617188 C 275.332031 107.777344 273.601562 102.0625 270.363281 97.203125 L 312.585938 54.980469 C 326.359375 64.097656 344.914062 60.324219 354.027344 46.550781 C 363.144531 32.777344 359.371094 14.222656 345.597656 5.105469 C 331.824219 -4.007812 313.269531 -0.234375 304.152344 13.539062 C 297.53125 23.546875 297.53125 36.542969 304.152344 46.550781 L 261.933594 88.769531 C 250.300781 81.019531 234.832031 82.460938 224.832031 92.230469 L 159.6875 47.683594 C 166.199219 32.535156 159.195312 14.972656 144.046875 8.460938 C 128.898438 1.953125 111.335938 8.953125 104.824219 24.101562 C 100.960938 33.09375 101.75 43.410156 106.933594 51.707031 L 47.980469 107.167969 C 34.359375 97.417969 15.414062 100.558594 5.667969 114.183594 C -4.082031 127.804688 -0.941406 146.75 12.683594 156.496094 C 26.304688 166.242188 45.25 163.101562 54.996094 149.480469 C 62.113281 139.53125 62.558594 126.28125 56.125 115.878906 L 115.078125 60.421875 C 126.734375 68.734375 142.667969 67.496094 152.902344 57.488281 L 218.042969 102.03125 C 211.644531 117.203125 218.757812 134.691406 233.929688 141.089844 C 249.101562 147.492188 266.589844 140.378906 272.988281 125.207031 C 274.535156 121.539062 275.332031 117.597656 275.332031 113.617188 Z M 329 12.246094 C 338.882812 12.246094 346.890625 20.253906 346.890625 30.132812 C 346.890625 40.011719 338.882812 48.023438 329 48.023438 C 319.121094 48.023438 311.113281 40.011719 311.113281 30.132812 C 311.113281 20.253906 319.121094 12.246094 329 12.246094 Z M 30.839844 149.398438 C 20.960938 149.398438 12.953125 141.386719 12.953125 131.507812 C 12.953125 121.628906 20.960938 113.621094 30.839844 113.621094 C 40.722656 113.621094 48.730469 121.628906 48.730469 131.507812 C 48.730469 141.386719 40.722656 149.398438 30.839844 149.398438 Z M 132.214844 53.988281 C 122.335938 53.988281 114.328125 45.976562 114.328125 36.097656 C 114.328125 26.21875 122.335938 18.207031 132.214844 18.207031 C 142.09375 18.207031 150.105469 26.21875 150.105469 36.097656 C 150.105469 45.976562 142.09375 53.988281 132.214844 53.988281 Z M 245.515625 131.507812 C 235.636719 131.507812 227.628906 123.496094 227.628906 113.617188 C 227.628906 103.738281 235.636719 95.730469 245.515625 95.730469 C 255.398438 95.730469 263.40625 103.738281 263.40625 113.617188 C 263.40625 123.496094 255.398438 131.507812 245.515625 131.507812 Z M 245.515625 131.507812 " style=" stroke:none;fill-rule:nonzero;fill:rgb(13.72549%,12.156863%,12.54902%);fill-opacity:1;" />
</g>
</svg>