<svg height="512pt" viewBox="-17 0 512 512.07497" width="512pt" xmlns="http://www.w3.org/2000/svg"><path d="m349.902344 75.863281v-58.796875c0-4.710937-3.820313-8.53125-8.53125-8.53125h-187.734375c-4.710938 0-8.53125 3.820313-8.53125 8.53125v58.796875l-17.066407 9.46875 8.53125 8.535157h221.867188l8.535156-8.535157zm0 0" fill="#ff9801"/><path d="m221.902344 452.265625c0 28.277344-22.921875 51.199219-51.199219 51.199219-4.316406-.011719-8.613281-.554688-12.800781-1.621094-22.601563-5.8125-38.402344-26.195312-38.402344-49.535156s15.800781-43.71875 38.402344-49.535156c4.175781-1.132813 8.476562-1.707032 12.800781-1.707032 28.277344 0 51.199219 22.921875 51.199219 51.199219zm0 0" fill="#283593"/><path d="m392.570312 452.265625c0 28.277344-22.921874 51.199219-51.199218 51.199219-4.316406-.011719-8.617188-.554688-12.800782-1.621094-22.605468-5.8125-38.40625-26.195312-38.40625-49.535156s15.800782-43.71875 38.40625-49.535156c4.171876-1.132813 8.476563-1.707032 12.800782-1.707032 28.277344 0 51.199218 22.921875 51.199218 51.199219zm0 0" fill="#283593"/><path d="m196.304688 452.265625c-.054688 23.332031-15.828126 43.691406-38.402344 49.578125-22.601563-5.8125-38.402344-26.195312-38.402344-49.535156s15.800781-43.71875 38.402344-49.535156c22.578125 5.828124 38.363281 26.175781 38.402344 49.492187zm0 0" fill="#3f51b5"/><path d="m366.972656 452.265625c-.058594 23.332031-15.828125 43.691406-38.402344 49.578125-22.605468-5.8125-38.40625-26.195312-38.40625-49.535156s15.800782-43.71875 38.40625-49.535156c22.578126 5.828124 38.363282 26.175781 38.402344 49.492187zm0 0" fill="#3f51b5"/><path d="m468.601562 149.929688-51.371093 170.667968c-2.199219 7.25-8.890625 12.207032-16.46875 12.203125h-333.738281l-12.800782-204.800781h397.996094c5.390625-.007812 10.46875 2.53125 13.699219 6.851562 3.226562 4.320313 4.222656 9.910157 2.683593 15.078126zm0 0" fill="#607d8b"/><path d="m443.003906 149.929688-51.371094 170.667968c-2.203124 7.25-8.890624 12.207032-16.46875 12.203125h-308.140624l-12.800782-204.800781h372.394532c5.394531-.007812 10.472656 2.53125 13.699218 6.851562 3.226563 4.320313 4.222656 9.910157 2.6875 15.078126zm0 0" fill="#cfd8dc"/><path d="m366.972656 85.332031v187.734375c0 4.714844-3.824218 8.535156-8.535156 8.535156h-221.867188c-4.710937 0-8.53125-3.820312-8.53125-8.535156v-187.734375zm0 0" fill="#fdd834"/><path d="m341.371094 85.332031v187.734375c.222656 4.449219-3.171875 8.253906-7.621094 8.535156h-198.09375c-4.445312-.28125-7.84375-4.085937-7.617188-8.535156v-187.734375zm0 0" fill="#ffeb3a"/><path d="m204.835938 42.667969-59.730469 33.195312v-58.796875c-.015625-2.453125 1.042969-4.792968 2.898437-6.398437zm0 0" fill="#f57c00"/><path d="m349.902344 17.066406.003906 58.796875-59.734375-33.195312 56.832031-32c1.855469 1.605469 2.917969 3.945312 2.898438 6.398437zm0 0" fill="#f57c00"/><path d="m366.972656 85.332031h-76.800781v-42.664062l59.730469 33.195312zm0 0" fill="#fec108"/><path d="m204.835938 42.667969v42.664062h-76.796876l17.066407-9.46875zm0 0" fill="#fec108"/><path d="m213.371094 136.535156c0 9.425782-7.640625 17.066406-17.066406 17.066406-9.425782 0-17.066407-7.640624-17.066407-17.066406 0-9.425781 7.640625-17.070312 17.066407-17.070312 9.425781 0 17.066406 7.644531 17.066406 17.070312zm0 0" fill="#e57e25"/><path d="m315.769531 136.535156c0 9.425782-7.640625 17.066406-17.066406 17.066406s-17.066406-7.640624-17.066406-17.066406c0-9.425781 7.640625-17.070312 17.066406-17.070312s17.066406 7.644531 17.066406 17.070312zm0 0" fill="#e57e25"/><path d="m170.703125 477.867188c14.140625 0 25.601563-11.460938 25.601563-25.601563 0-14.136719-11.460938-25.597656-25.601563-25.597656-4.710937 0-8.53125 3.820312-8.53125 8.53125 0 4.714843 3.820313 8.535156 8.53125 8.535156 4.714844 0 8.535156 3.820313 8.535156 8.53125 0 4.714844-3.820312 8.535156-8.535156 8.535156-4.710937 0-8.53125-3.820312-8.53125-8.535156 0-4.710937-3.820313-8.53125-8.535156-8.53125-4.710938 0-8.53125 3.820313-8.53125 8.53125 0 14.140625 11.460937 25.601563 25.597656 25.601563zm0 0"/><path d="m341.371094 477.867188c14.136718 0 25.601562-11.460938 25.601562-25.601563 0-14.136719-11.464844-25.597656-25.601562-25.597656-4.714844 0-8.535156 3.820312-8.535156 8.53125 0 4.714843 3.820312 8.535156 8.535156 8.535156 4.710937 0 8.53125 3.820313 8.53125 8.53125 0 4.714844-3.820313 8.535156-8.53125 8.535156-4.714844 0-8.535156-3.820312-8.535156-8.535156 0-4.710937-3.820313-8.53125-8.53125-8.53125-4.714844 0-8.535157 3.820313-8.535157 8.53125 0 14.140625 11.460938 25.601563 25.601563 25.601563zm0 0"/><path d="m352.507812 4.265625c-.1875-.152344-.367187-.316406-.5625-.460937-2.988281-2.433594-6.71875-3.7773442-10.574218-3.804688h-187.734375c-3.84375.015625-7.566407 1.34375-10.554688 3.761719-.207031.152343-.410156.3125-.597656.488281-3.738281 3.210938-5.898437 7.886719-5.914063 12.816406v53.761719l-12.671874 7.039063c-.300782.226562-.585938.472656-.851563.734374-.480469.332032-.921875.710938-1.324219 1.132813-.351562.417969-.65625.871094-.914062 1.347656-.285156.453125-.527344.929688-.722656 1.425781-.179688.554688-.296876 1.128907-.351563 1.707032-.105469.367187-.179687.742187-.230469 1.117187v34.132813h-57.285156l-5.859375-94.394532c-.28125-4.503906-4.023437-8.011718-8.535156-8.003906h-39.253907c-4.710937 0-8.5312495 3.820313-8.5312495 8.535156 0 4.710938 3.8203125 8.53125 8.5312495 8.53125h31.214844l20.34375 325.214844c.050782 27.730469 22.519532 50.199219 50.253906 50.253906h18.59375c-17.382812 16.96875-22.753906 42.769532-13.59375 65.265626 9.160157 22.5 31.03125 37.207031 55.320313 37.207031 24.292969 0 46.164063-14.707031 55.324219-37.207031 9.160156-22.496094 3.785156-48.296876-13.59375-65.265626h87.210937c-17.382812 16.96875-22.757812 42.769532-13.597656 65.265626 9.164063 22.5 31.035156 37.207031 55.324219 37.207031 24.289062 0 46.160156-14.707031 55.324218-37.207031 9.160157-22.496094 3.785157-48.296876-13.597656-65.265626h60.671875c4.714844 0 8.535157-3.820312 8.535157-8.535156 0-4.710937-3.820313-8.53125-8.535157-8.53125h-333.386719c-8.882812-.042968-17.382812-3.625-23.613281-9.957031-6.230469-6.328125-9.683593-14.878906-9.589843-23.761719l-1.101563-17.484375h324.710937c11.355469.039063 21.382813-7.398437 24.644532-18.277343l51.359375-170.667969c2.316406-7.75.828125-16.140625-4.007813-22.625-4.835937-6.484375-12.453125-10.300781-20.539062-10.296875h-76.742188v-34.132813c-.046875-.363281-.121094-.726562-.222656-1.082031-.054688-.582031-.171875-1.152344-.347656-1.707031-.195313-.496094-.4375-.972657-.726563-1.425781-.257812-.480469-.5625-.929688-.914062-1.347657-.398438-.421875-.84375-.804687-1.320313-1.136719-.269531-.261718-.554687-.503906-.855468-.730468l-12.679688-7.074219v-53.761719c-.027344-4.925781-2.191406-9.59375-5.929688-12.800781zm31.53125 448c0 23.566406-19.105468 42.667969-42.667968 42.667969s-42.667969-19.101563-42.667969-42.667969c0-23.5625 19.105469-42.664063 42.667969-42.664063 23.550781.027344 42.636718 19.113282 42.667968 42.664063zm-170.667968 0c0 23.566406-19.101563 42.667969-42.667969 42.667969-23.5625 0-42.664063-19.101563-42.664063-42.667969 0-23.5625 19.101563-42.664063 42.664063-42.664063 23.554687.027344 42.640625 19.113282 42.667969 42.664063zm85.332031-395.09375 35.335937 19.628906h-35.335937zm-12.722656-21.945313c-.671875.378907-1.289063.851563-1.835938 1.398438v.058594c-.652343.6875-1.183593 1.476562-1.578125 2.339844-.109375.226562-.203125.460937-.289062.699218-.386719.9375-.601563 1.933594-.640625 2.945313v34.132812h-68.265625v-34.132812c-.027344-.996094-.226563-1.976563-.589844-2.902344-.082031-.238281-.179688-.472656-.289062-.699219-.394532-.863281-.925782-1.652344-1.578126-2.339844v-.058593c-.546874-.546875-1.164062-1.019531-1.835937-1.398438l-32.308594-18.203125h141.46875zm-89.675781 41.574219h-35.335938l35.335938-19.628906zm-59.734376 170.664063h162.132813c4.714844 0 8.535156-3.820313 8.535156-8.53125 0-4.714844-3.820312-8.535156-8.535156-8.535156h-162.132813v-136.53125h221.867188v136.53125h-25.601562c-4.710938 0-8.53125 3.820312-8.53125 8.535156 0 4.710937 3.820312 8.53125 8.53125 8.53125h25.601562v25.601562h-221.867188zm171.078126-204.847656 33.722656-18.988282v37.71875zm-154.011719-18.988282 33.722656 18.988282-33.722656 18.730468zm298.609375 112.90625c2.730468-.019531 5.308594 1.277344 6.925781 3.480469 1.597656 2.136719 2.074219 4.910156 1.28125 7.457031l-51.351563 170.667969c-1.109374 3.660156-4.488281 6.164063-8.3125 6.160156h-325.777343l-11.726563-187.769531 56.21875.003906v136.53125h-17.066406c-4.710938 0-8.535156 3.820313-8.535156 8.535156 0 4.710938 3.824218 8.53125 8.535156 8.53125h290.132812c4.714844 0 8.535157-3.820312 8.535157-8.53125 0-4.714843-3.820313-8.535156-8.535157-8.535156h-17.066406v-136.53125zm0 0"/><path d="m298.703125 110.933594c-12.128906.019531-22.578125 8.546875-25.027344 20.425781-2.453125 11.878906 3.769531 23.847656 14.898438 28.667969-4.90625 10.859375-21.648438 19.171875-41.070313 19.171875s-36.15625-8.3125-41.070312-19.171875c11.496094-4.84375 17.871094-17.230469 15.125-29.398438-2.746094-12.167968-13.824219-20.617187-26.285156-20.050781-12.464844.570313-22.726563 9.992187-24.351563 22.359375-1.628906 12.371094 5.84375 24.125 17.738281 27.898438 4.691406 20.351562 28.816406 35.429687 58.84375 35.429687s54.152344-15.078125 58.878906-35.429687c12.082032-3.742188 19.597657-15.765626 17.675782-28.261719-1.925782-12.5-12.710938-21.703125-25.355469-21.640625zm-102.398437 17.066406c4.710937 0 8.53125 3.820312 8.53125 8.535156 0 4.710938-3.820313 8.53125-8.53125 8.53125-4.714844 0-8.535157-3.820312-8.535157-8.53125 0-4.714844 3.820313-8.535156 8.535157-8.535156zm102.398437 17.066406c-4.710937 0-8.53125-3.820312-8.53125-8.53125 0-4.714844 3.820313-8.535156 8.53125-8.535156 4.714844 0 8.535156 3.820312 8.535156 8.535156 0 4.710938-3.820312 8.53125-8.535156 8.53125zm0 0"/></svg>