<?xml version="1.0" encoding="iso-8859-1"?>
<!-- Generator: Adobe Illustrator 19.0.0, SVG Export Plug-In . SVG Version: 6.00 Build 0)  -->
<svg version="1.1" id="Capa_1" xmlns="http://www.w3.org/2000/svg" xmlns:xlink="http://www.w3.org/1999/xlink" x="0px" y="0px"
	 viewBox="0 0 113.93 113.93" style="enable-background:new 0 0 113.93 113.93;" xml:space="preserve">
<g>
	<path style="fill:#FFE101;" d="M109.97,44.779H62.952v3h47.482C110.306,46.771,110.159,45.768,109.97,44.779z"/>
	<path style="fill:#FFE101;" d="M108.083,37.779H62.952v3h46.069C108.737,39.767,108.428,38.765,108.083,37.779z"/>
	<path style="fill:#FFE101;" d="M105.952,32.673c-0.309-0.639-0.63-1.27-0.965-1.893H62.952v3h43V32.673z"/>
	<path style="fill:#FFE101;" d="M101.952,25.829c-0.487-0.697-0.992-1.38-1.514-2.05H62.952v3h39V25.829z"/>
	<path style="fill:#FFE101;" d="M94.952,17.814c-0.755-0.699-1.523-1.383-2.32-2.035h-29.68v3h32V17.814z"/>
	<path style="fill:#FFE101;" d="M85.952,11.182c-1.529-0.881-3.106-1.687-4.731-2.403H62.952v3h23V11.182z"/>
	<path d="M113.834,53.317c-0.33-28.535-23.813-51.722-52.35-51.722c-0.094,0,0.005,0.017-0.088,0.02l-1.444,0.034v53.131h53.899
		L113.834,53.317z M62.952,51.779v-4v-3v-4v-3v-4v-3v-4v-3v-5v-3v-4v-3V4.633c6,0.144,12.718,1.615,18.462,4.146
		c1.625,0.716,3.105,1.522,4.635,2.403c2.352,1.355,4.541,2.887,6.632,4.597c0.797,0.652,1.541,1.336,2.296,2.035
		c1.984,1.838,3.811,3.829,5.474,5.965c0.521,0.67,1.02,1.353,1.508,2.05c1.107,1.584,2.113,3.24,3.032,4.95
		c0.335,0.623,0.655,1.255,0.964,1.893c0.8,1.655,1.516,3.357,2.13,5.107c0.346,0.986,0.654,1.987,0.938,3
		c0.368,1.314,0.691,2.645,0.949,4c0.189,0.989,0.336,1.937,0.464,2.946c0.172,1.355,0.3,3.054,0.358,4.054H62.952z"/>
	<path style="fill:#A7E62A;" d="M50.952,51.779V4.633c-26,0.566-46.802,21.146-47.894,47.146H50.952z"/>
	<path d="M52.368,1.622c-28.535,0-52.02,23.16-52.351,51.695L0,54.779h53.952V1.648l-1.47-0.02
		C52.389,1.624,52.462,1.622,52.368,1.622z M50.952,4.633v47.146H3.059C4.15,25.779,24.952,5.199,50.952,4.633z"/>
	<path style="fill:#FF422C;" d="M62.952,61.779v47.545c26-0.566,46.75-21.545,47.841-47.545H62.952z"/>
	<path d="M59.952,112.315l1.725,0.021c28.536,0,51.923-23.36,52.253-51.895l-0.079-1.662H59.952V112.315z M62.952,109.324V61.779
		h47.841C109.702,87.779,88.952,108.758,62.952,109.324z"/>
	<path d="M0.018,60.442c0.331,28.534,23.649,51.822,52.184,51.822l1.75,0.052V58.779H0L0.018,60.442z M50.952,61.779v47.545
		c-26-0.566-46.802-21.545-47.894-47.545H50.952z"/>
	<circle style="fill:#2AB9F7;" cx="17.55" cy="74.505" r="1.209"/>
	<circle style="fill:#2AB9F7;" cx="22.337" cy="67.324" r="1.209"/>
	<circle style="fill:#2AB9F7;" cx="29.518" cy="74.505" r="1.209"/>
	<circle style="fill:#2AB9F7;" cx="33.108" cy="67.324" r="1.209"/>
	<circle style="fill:#2AB9F7;" cx="24.73" cy="84.079" r="1.209"/>
	<circle style="fill:#2AB9F7;" cx="31.911" cy="92.457" r="1.209"/>
	<circle style="fill:#2AB9F7;" cx="22.337" cy="92.457" r="1.209"/>
	<circle style="fill:#2AB9F7;" cx="34.305" cy="99.638" r="1.209"/>
	<circle style="fill:#2AB9F7;" cx="36.698" cy="84.079" r="1.209"/>
	<circle style="fill:#2AB9F7;" cx="43.88" cy="92.457" r="1.209"/>
	<circle style="fill:#2AB9F7;" cx="43.88" cy="103.228" r="1.209"/>
	<circle style="fill:#2AB9F7;" cx="41.486" cy="74.505" r="1.209"/>
	<circle style="fill:#2AB9F7;" cx="46.273" cy="81.686" r="1.209"/>
	<circle style="fill:#2AB9F7;" cx="45.076" cy="67.324" r="1.209"/>
	<circle style="fill:#2AB9F7;" cx="13.959" cy="82.882" r="1.209"/>
	<circle style="fill:#2AB9F7;" cx="9.172" cy="66.127" r="1.209"/>
</g>
<g>
</g>
<g>
</g>
<g>
</g>
<g>
</g>
<g>
</g>
<g>
</g>
<g>
</g>
<g>
</g>
<g>
</g>
<g>
</g>
<g>
</g>
<g>
</g>
<g>
</g>
<g>
</g>
<g>
</g>
</svg>
