<?xml version="1.0" encoding="iso-8859-1"?>
<!-- Generator: Adobe Illustrator 19.0.0, SVG Export Plug-In . SVG Version: 6.00 Build 0)  -->
<svg version="1.1" id="Capa_1" xmlns="http://www.w3.org/2000/svg" xmlns:xlink="http://www.w3.org/1999/xlink" x="0px" y="0px"
	 viewBox="0 0 512.001 512.001" style="enable-background:new 0 0 512.001 512.001;" xml:space="preserve">
<g>
	<circle style="fill:#82DCFF;" cx="193.508" cy="473.922" r="27.992"/>
	<circle style="fill:#82DCFF;" cx="376.888" cy="473.922" r="27.992"/>
</g>
<path style="fill:#E7F8FF;" d="M136.838,365.952h294.531c9.584,0,17.821-6.801,19.634-16.213l33.53-174.069H92.272"/>
<path style="fill:#FF5D5D;" d="M372.233,248.91l-12.39,5.785c-6.763,3.158-14.814,1.172-19.331-4.772l-8.357-10.995
	c-2.831-3.725-7.163-6.009-11.836-6.241l-13.705-0.681c-7.423-0.369-13.593-5.844-14.842-13.17l-2.355-13.814
	c-0.782-4.585-3.536-8.595-7.535-10.969l-11.966-7.103c-6.359-3.775-9.263-11.446-7-18.486l4.32-13.433
	c1.418-4.409,0.837-9.218-1.591-13.162l-7.383-11.998c-3.871-6.29-2.885-14.42,2.376-19.604l9.984-9.835
	c3.304-3.255,5.018-7.794,4.688-12.421l-1.001-14.049c-0.527-7.394,4.141-14.166,11.238-16.306l13.219-3.986
	c4.467-1.347,8.114-4.593,9.969-8.873l5.536-12.77c2.964-6.836,10.288-10.686,17.599-9.251l13.415,2.633
	c4.601,0.903,9.365-0.277,13.012-3.222l10.678-8.622c5.811-4.692,14.108-4.692,19.92,0l10.678,8.622
	c3.648,2.945,8.412,4.125,13.012,3.222l13.414-2.632c7.312-1.435,14.636,2.415,17.6,9.253l5.534,12.767
	c1.855,4.281,5.504,7.527,9.97,8.875l13.22,3.986c7.097,2.139,11.765,8.912,11.238,16.306L482.57,88.01
	c-0.33,4.627,1.384,9.166,4.688,12.421l9.984,9.835c5.262,5.184,6.247,13.313,2.376,19.604l-7.383,11.998
	c-2.427,3.945-3.008,8.753-1.591,13.162l4.32,13.433c2.263,7.04-0.641,14.711-6.999,18.486L476,194.053
	c-3.999,2.374-6.754,6.384-7.535,10.969l-2.355,13.814c-1.249,7.326-7.419,12.802-14.842,13.17l-13.708,0.681
	c-4.674,0.232-9.006,2.517-11.837,6.242l-8.354,10.992c-4.517,5.943-12.568,7.931-19.332,4.773l-12.389-5.785
	C381.397,246.925,376.485,246.925,372.233,248.91z"/>
<path d="M436.965,403.941c-2.629,0-5.209,1.069-7.068,2.929c-1.859,1.859-2.929,4.439-2.929,7.068s1.07,5.209,2.929,7.067
	c1.859,1.859,4.439,2.93,7.068,2.93c2.629,0,5.209-1.07,7.068-2.93c1.87-1.859,2.929-4.438,2.929-7.067s-1.06-5.209-2.929-7.068
	C442.174,405.01,439.595,403.941,436.965,403.941z"/>
<path d="M193.511,435.933c-20.947,0-37.99,17.042-37.99,37.99s17.042,37.99,37.99,37.99s37.99-17.042,37.99-37.99
	S214.458,435.933,193.511,435.933z M193.511,491.918c-9.922,0-17.995-8.073-17.995-17.995c0-9.922,8.073-17.995,17.995-17.995
	c9.922,0,17.995,8.073,17.995,17.995C211.506,483.845,203.433,491.918,193.511,491.918z"/>
<path d="M376.883,435.933c-20.947,0-37.99,17.042-37.99,37.99s17.042,37.99,37.99,37.99s37.99-17.042,37.99-37.99
	S397.831,435.933,376.883,435.933z M376.883,491.918c-9.922,0-17.995-8.073-17.995-17.995c0-9.922,8.073-17.995,17.995-17.995
	c9.922,0,17.995,8.073,17.995,17.995C394.879,483.845,386.807,491.918,376.883,491.918z"/>
<path d="M467.423,264.491c-5.418-1.045-10.664,2.503-11.708,7.926l-14.53,75.431c-0.905,4.697-5.034,8.106-9.817,8.106H142.872
	l-39.154-170.287h102.806c5.521,0,9.997-4.476,9.997-9.997c0-5.521-4.476-9.997-9.997-9.997H99.12l-10.663-46.376
	c-3.149-13.702-15.169-23.272-29.229-23.272H9.997C4.476,96.024,0,100.5,0,106.022s4.476,9.997,9.997,9.997h49.232
	c4.687,0,8.693,3.189,9.743,7.757l67.232,292.403c1.044,4.54,5.085,7.757,9.743,7.757h254.998c5.522,0,9.997-4.477,9.997-9.997
	s-4.476-9.997-9.997-9.997H153.907l-6.436-27.992h283.898c14.35,0,26.737-10.227,29.45-24.318l14.53-75.431
	C476.393,270.777,472.845,265.536,467.423,264.491z"/>
<path d="M508.134,135.11c6.35-10.318,4.757-23.464-3.875-31.965l-9.984-9.835c-1.223-1.205-1.853-2.877-1.733-4.59l1-14.048
	c0.865-12.142-6.67-23.075-18.325-26.588l-13.221-3.986c-1.654-0.499-2.996-1.694-3.684-3.278l-5.534-12.767
	c-4.796-11.064-16.866-17.407-28.698-15.087l-13.415,2.633c-1.706,0.333-3.456-0.1-4.807-1.191l-10.679-8.622
	c-9.409-7.596-23.069-7.598-32.479,0l-10.679,8.622c-1.352,1.091-3.102,1.526-4.808,1.19l-13.416-2.633
	c-11.833-2.323-23.902,4.022-28.697,15.084l-5.536,12.77c-0.687,1.585-2.029,2.779-3.683,3.278l-13.219,3.985
	c-11.654,3.514-19.189,14.447-18.324,26.588l1,14.049c0.122,1.712-0.51,3.384-1.732,4.589l-9.984,9.835
	c-8.632,8.502-10.225,21.647-3.875,31.965l7.382,11.997c0.898,1.46,1.112,3.232,0.588,4.864l-4.32,13.433
	c-3.715,11.553,0.979,23.949,11.413,30.143l11.967,7.105c1.48,0.878,2.494,2.355,2.783,4.052l2.354,13.814
	c2.052,12.039,12.005,20.869,24.201,21.475l13.704,0.681c1.731,0.086,3.325,0.927,4.373,2.305l8.357,10.996
	c4.995,6.57,12.76,10.179,20.67,10.179c3.673,0,7.378-0.778,10.85-2.399l12.39-5.785l0,0c1.575-0.736,3.381-0.736,4.957,0
	l12.388,5.785c10.952,5.113,24.208,1.841,31.521-7.783l8.353-10.992c1.049-1.38,2.643-2.22,4.374-2.306l13.707-0.682
	c12.197-0.606,22.149-9.436,24.201-21.475l2.354-13.814c0.289-1.697,1.304-3.173,2.783-4.052l11.967-7.104
	c10.434-6.194,15.128-18.59,11.414-30.143l-4.32-13.433c-0.525-1.632-0.311-3.404,0.587-4.863L508.134,135.11z M491.105,124.631
	l-7.383,11.998c-3.962,6.44-4.908,14.263-2.593,21.461l4.32,13.433c0.842,2.618-0.222,5.427-2.585,6.83l-11.966,7.104
	c-6.532,3.878-11.01,10.396-12.288,17.885l-2.354,13.813c-0.465,2.727-2.719,4.728-5.483,4.866l-13.708,0.682
	c-7.638,0.38-14.672,4.089-19.3,10.178l-8.353,10.992c-1.658,2.179-4.661,2.921-7.143,1.764l-12.388-5.785
	c-6.952-3.247-14.927-3.246-21.878,0l-12.389,5.785c-2.481,1.16-5.484,0.417-7.142-1.763l-8.357-10.996
	c-4.627-6.087-11.661-9.796-19.299-10.176l-13.704-0.681c-2.763-0.137-5.019-2.138-5.483-4.866l-2.354-13.814
	c-1.277-7.488-5.755-14.007-12.287-17.884l-11.967-7.104c-2.364-1.404-3.427-4.212-2.585-6.83l4.32-13.433
	c2.314-7.199,1.37-15.021-2.593-21.462l-7.383-11.998c-1.439-2.337-1.078-5.316,0.878-7.242l9.985-9.836
	c5.396-5.316,8.182-12.698,7.644-20.253l-1-14.049c-0.196-2.75,1.512-5.228,4.151-6.024l13.219-3.985
	c7.298-2.2,13.223-7.474,16.256-14.467l5.536-12.77c0.937-2.159,3.096-3.526,5.392-3.526c0.369,0,0.74,0.036,1.111,0.108
	l13.415,2.632c7.521,1.479,15.254-0.438,21.218-5.253l10.679-8.622c2.133-1.722,5.228-1.721,7.359,0l10.679,8.622
	c5.963,4.814,13.694,6.728,21.218,5.254l13.414-2.632c2.683-0.53,5.416,0.912,6.501,3.418l5.535,12.767
	c3.032,6.996,8.958,12.27,16.258,14.47l13.221,3.986c2.64,0.796,4.348,3.273,4.152,6.024l-1,14.048
	c-0.538,7.555,2.248,14.937,7.644,20.254l9.984,9.835C492.182,119.314,492.543,122.292,491.105,124.631z"/>
<path d="M402.067,87.828c-4.809-2.715-10.906-1.018-13.62,3.791l-46.364,82.13c-2.714,4.809-1.018,10.906,3.791,13.62
	c1.554,0.877,3.24,1.294,4.906,1.294c3.489,0,6.877-1.83,8.715-5.085l46.365-82.13C408.572,96.639,406.874,90.542,402.067,87.828z"
	/>
<path d="M409.072,140.346c-14.337,0-26.001,11.664-26.001,26.001s11.664,26.001,26.001,26.001s26.001-11.664,26.001-26.001
	S423.408,140.346,409.072,140.346z M409.072,172.354c-3.312,0-6.006-2.694-6.006-6.006c0-3.312,2.694-6.006,6.006-6.006
	s6.006,2.694,6.006,6.006C415.078,169.66,412.384,172.354,409.072,172.354z"/>
<path d="M374.812,99.886c0-14.337-11.664-26.001-26.001-26.001c-14.337,0-26.001,11.664-26.001,26.001s11.664,26.001,26.001,26.001
	C363.148,125.887,374.812,114.223,374.812,99.886z M342.804,99.886c0-3.312,2.694-6.006,6.006-6.006s6.006,2.694,6.006,6.006
	s-2.694,6.006-6.006,6.006S342.804,103.198,342.804,99.886z"/>
<g>
</g>
<g>
</g>
<g>
</g>
<g>
</g>
<g>
</g>
<g>
</g>
<g>
</g>
<g>
</g>
<g>
</g>
<g>
</g>
<g>
</g>
<g>
</g>
<g>
</g>
<g>
</g>
<g>
</g>
</svg>
