<?xml version="1.0" encoding="iso-8859-1"?>
<!-- Generator: Adobe Illustrator 19.0.0, SVG Export Plug-In . SVG Version: 6.00 Build 0)  -->
<svg version="1.1" id="Capa_1" xmlns="http://www.w3.org/2000/svg" xmlns:xlink="http://www.w3.org/1999/xlink" x="0px" y="0px"
	 viewBox="0 0 512 512" style="enable-background:new 0 0 512 512;" xml:space="preserve">
<path style="fill:#EDF2FA;" d="M245.174,223.972h-98.168c-22.091,0-40-17.909-40-40V50c0-22.091,17.909-40,40-40H462
	c22.091,0,40,17.909,40,40v133.972c0,22.091-17.909,40-40,40h-74.667L349.169,251.5v-27.528H327H245.174z"/>
<path style="fill:#FF5D5D;" d="M170.843,373.569L132,360.698l-38.842,12.871c-12.585,4.171-21.082,15.937-21.082,29.196v59.172
	h119.849v-59.172C191.925,389.506,183.428,377.74,170.843,373.569z"/>
<path style="fill:#FFFFFF;" d="M100.962,365.707L100.962,365.707c25.468,0,46.113-20.646,46.113-46.113v-12.03
	c0-25.468-20.646-46.113-46.113-46.113l0,0c-25.468,0-46.113,20.646-46.113,46.113v12.03
	C54.849,345.062,75.495,365.707,100.962,365.707z"/>
<g>
	<path style="fill:#FFCDAC;" d="M121.712,266.387c-15.042,7.595-25.363,23.176-25.363,41.178v12.03
		c0,18.001,10.322,33.583,25.363,41.177c15.042-7.595,25.363-23.176,25.363-41.177v-12.03
		C147.076,289.563,136.754,273.982,121.712,266.387z"/>
	<path style="fill:#FFCDAC;" d="M278.47,227.993c-24.297,9.063-41.605,32.471-41.605,59.927v16.682
		c0,27.457,17.308,50.865,41.605,59.927c24.297-9.063,41.605-32.471,41.605-59.927V287.92
		C320.075,260.464,302.768,237.056,278.47,227.993z"/>
</g>
<path style="fill:#A0E557;" d="M480.918,373.569l-45.35-15.028h-49.061l-14.469,4.795l30.88,10.233
	C415.503,377.74,424,389.506,424,402.765v59.172h78v-59.172C502,389.506,493.503,377.74,480.918,373.569z"/>
<path style="fill:#FFFFFF;" d="M221.161,379.454l62.889-20.84h-61.941l-62.89,20.84c-17.453,5.784-29.236,22.101-29.236,40.488V502
	h61.942v-82.059C191.925,401.555,203.708,385.237,221.161,379.454z"/>
<path style="fill:#72D8FF;" d="M353.035,379.454l-62.89-20.84h-6.095l-62.889,20.84c-17.454,5.784-29.236,22.101-29.236,40.488V502
	h190.346v-82.059C382.271,401.555,370.488,385.237,353.035,379.454z"/>
<path style="fill:#FFCDAC;" d="M429.371,265.249c-16.344,7.091-27.78,23.365-27.78,42.316v12.03
	c0,18.951,11.436,35.225,27.78,42.316c16.344-7.091,27.78-23.365,27.78-42.316v-12.03
	C457.151,288.614,445.715,272.34,429.371,265.249z"/>
<polyline style="fill:#D8D8E4;" points="205.609,366.055 256.127,416.574 306.645,366.055 "/>
<path style="fill:#898998;" d="M319.989,284.562c-1.345-25.998-18.225-47.875-41.53-56.565
	c-18.857,7.038-33.487,22.722-39.094,42.23c0.678-0.793,1.344-1.598,1.982-2.424c5.902,7.644,13.554,13.857,22.343,18.08
	c8.121,3.902,17.211,6.108,26.825,6.108c7.887,0,15.428-1.476,22.369-4.158c2.445-0.945,4.818-2.037,7.103-3.271l0.088,3.358
	C320.075,286.794,320.046,285.675,319.989,284.562z"/>
<path style="fill:#FF5D5D;" d="M121.813,175.986h70.379c8.178,0,14.807-6.629,14.807-14.807V72.794
	c0-8.178-6.629-14.807-14.807-14.807h-70.379c-8.178,0-14.807,6.629-14.807,14.807v88.385
	C107.006,169.357,113.636,175.986,121.813,175.986z"/>
<path style="fill:#FFFFFF;" d="M130.085,93.515l23.639,13.648c7.562,4.366,7.562,15.28,0,19.646l-23.639,13.648
	c-7.562,4.366-17.014-1.091-17.014-9.823v-27.296C113.072,94.607,122.524,89.15,130.085,93.515z"/>
<path d="M449,54H268.729c-5.522,0-10,4.478-10,10s4.478,10,10,10H449c5.522,0,10-4.478,10-10S454.522,54,449,54z"/>
<path d="M456.069,104.93C454.21,103.07,451.63,102,449,102s-5.21,1.069-7.07,2.93S439,109.37,439,112s1.069,5.21,2.93,7.069
	c1.86,1.86,4.44,2.931,7.07,2.931s5.21-1.07,7.069-2.931C457.93,117.21,459,114.63,459,112S457.93,106.79,456.069,104.93z"/>
<path d="M268.729,122h137.557c5.522,0,10-4.478,10-10s-4.478-10-10-10H268.729c-5.522,0-10,4.478-10,10S263.207,122,268.729,122z"/>
<path d="M310.813,150c-5.522,0-10,4.478-10,10s4.478,10,10,10H449c5.522,0,10-4.478,10-10s-4.478-10-10-10H310.813z"/>
<path d="M268.602,170h0.721c5.522,0,10-4.478,10-10s-4.478-10-10-10h-0.721c-5.522,0-10,4.478-10,10S263.079,170,268.602,170z"/>
<path d="M484.063,364.077l-29.09-9.64c7.613-9.579,12.177-21.685,12.177-34.843v-12.029c0-30.941-25.172-56.113-56.113-56.113
	c-30.94,0-56.112,25.172-56.112,56.113v12.029c0,13.159,4.564,25.264,12.177,34.843l-28.885,9.572l-27.838-9.225
	c12.213-13.194,19.697-30.827,19.697-50.181v-16.682c0-1.41-0.049-2.809-0.127-4.2c-0.005-0.054-0.007-0.108-0.012-0.162
	c-2.267-38.751-34.499-69.586-73.809-69.586c-40.775,0-73.948,33.173-73.948,73.948v16.682c0,19.354,7.483,36.987,19.697,50.181
	l-27.965,9.267l-29.012-9.614c7.613-9.579,12.177-21.685,12.177-34.843v-12.029c0-30.941-25.172-56.113-56.113-56.113
	c-30.94,0-56.112,25.172-56.112,56.113v12.029c0,13.159,4.564,25.264,12.177,34.843l-29.09,9.64C11.227,369.614,0,385.162,0,402.765
	v59.173c0,5.522,4.478,10,10,10h109.983V502c0,5.522,4.478,10,10,10H382.27c5.522,0,10-4.478,10-10v-30.063H502
	c5.522,0,10-4.478,10-10v-59.173C512,385.162,500.773,369.614,484.063,364.077z M374.925,307.564
	c0-19.913,16.2-36.113,36.113-36.113c19.912,0,36.112,16.2,36.112,36.113v12.029c0,12.479-6.364,23.498-16.015,29.988
	c-0.611,0.302-1.19,0.666-1.729,1.087c-5.386,3.196-11.665,5.038-18.368,5.038h-0.001c-6.703,0-12.981-1.842-18.367-5.037
	c-0.54-0.422-1.121-0.787-1.733-1.089c-9.65-6.49-16.013-17.508-16.013-29.987v-12.029H374.925z M202.179,301.303
	c14.73-2.03,28.33-8.518,39.168-18.673c13.254,12.419,30.637,19.362,49.168,19.362c6.625,0,13.218-0.923,19.561-2.706v5.316
	c0,18.768-9.639,35.321-24.221,44.988c-0.725,0.345-1.406,0.777-2.031,1.286c-8.102,4.867-17.577,7.674-27.697,7.674
	s-19.594-2.806-27.696-7.673c-0.626-0.51-1.308-0.943-2.033-1.288c-14.581-9.668-24.219-26.22-24.219-44.987L202.179,301.303
	L202.179,301.303z M256.127,378.551c10.866,0,21.181-2.375,30.483-6.602l-30.483,30.483l-30.483-30.483
	C234.946,376.176,245.261,378.551,256.127,378.551z M256.127,233.973c26.538,0,48.645,19.266,53.11,44.542
	c-5.943,2.283-12.309,3.477-18.723,3.477c-16.255,0-31.291-7.399-41.253-20.301c-1.894-2.452-4.816-3.889-7.915-3.889
	s-6.021,1.437-7.915,3.889c-7.778,10.073-18.655,16.771-30.784,19.233C206.09,254.473,228.752,233.973,256.127,233.973z
	 M64.85,307.564c0-19.913,16.2-36.113,36.113-36.113c19.912,0,36.112,16.2,36.112,36.113v12.029c0,12.477-6.361,23.495-16.01,29.985
	c-0.614,0.303-1.196,0.669-1.737,1.092c-5.385,3.195-11.663,5.037-18.366,5.037c-6.703,0-12.981-1.842-18.367-5.037
	c-0.54-0.422-1.121-0.787-1.733-1.089c-9.65-6.49-16.013-17.508-16.013-29.987L64.85,307.564L64.85,307.564z M20,451.938v-49.173
	c0-8.965,5.718-16.883,14.228-19.703l41.05-13.604c7.702,3.984,16.431,6.249,25.684,6.249h0.001c9.253,0,17.982-2.265,25.684-6.249
	l17.909,5.935c-15.069,9.477-24.573,26.141-24.573,44.549v31.996H20z M372.271,492H346.08v-35c0-5.522-4.478-10-10-10
	s-10,4.478-10,10v35H185.921v-35c0-5.522-4.478-10-10-10s-10,4.478-10,10v35h-25.938v-72.059c0-14.104,8.994-26.56,22.382-30.995
	l39.05-12.941l47.64,47.639c1.953,1.952,4.512,2.929,7.071,2.929c2.559,0,5.118-0.977,7.071-2.929l47.64-47.639l39.05,12.941
	c13.388,4.436,22.382,16.892,22.382,30.995V492H372.271z M492,451.938h-99.729v-31.996c0-18.443-9.54-35.137-24.658-44.604
	l17.741-5.879c7.702,3.984,16.432,6.249,25.685,6.249s17.982-2.265,25.684-6.249l41.05,13.604
	c8.51,2.82,14.228,10.738,14.228,19.703L492,451.938L492,451.938z"/>
<path d="M462,0H50C22.43,0,0,22.43,0,50v133.973c0,27.57,22.43,50,50,50h102.168c5.522,0,10-4.478,10-10s-4.478-10-10-10H50
	c-16.542,0-30-13.458-30-30V50c0-16.542,13.458-30,30-30h412c16.542,0,30,13.458,30,30v133.973c0,16.542-13.458,30-30,30h-74.667
	c-2.1,0-4.146,0.661-5.85,1.89l-22.314,16.095v-7.984c0-5.522-4.478-10-10-10H327c-5.522,0-10,4.478-10,10s4.478,10,10,10h12.169
	V251.5c0,3.754,2.103,7.192,5.444,8.902c1.438,0.735,2.999,1.098,4.555,1.098c2.063,0,4.115-0.638,5.851-1.89l35.545-25.638H462
	c27.57,0,50-22.43,50-50V50C512,22.43,489.57,0,462,0z"/>
<path d="M217,157.973V76c0-15.447-12.566-28.014-28.014-28.014H77.027C61.58,47.986,49.014,60.553,49.014,76v81.973
	c0,15.447,12.566,28.014,28.014,28.014h111.959C204.434,185.986,217,173.42,217,157.973z M69.014,157.973V76
	c0-4.419,3.595-8.014,8.014-8.014h111.959c4.419,0,8.014,3.595,8.014,8.014v81.973c0,4.419-3.595,8.014-8.014,8.014H77.027
	C72.608,165.986,69.014,162.392,69.014,157.973z"/>
<path d="M158.725,98.503l-23.64-13.647c-6.679-3.857-14.657-3.858-21.342-0.001c-6.683,3.858-10.672,10.768-10.672,18.483v27.296
	c0,7.716,3.989,14.626,10.672,18.484c3.341,1.929,7.006,2.893,10.671,2.893s7.33-0.965,10.671-2.894l23.64-13.647
	c6.682-3.858,10.671-10.768,10.671-18.483S165.406,102.361,158.725,98.503z M148.725,118.149l-23.64,13.647
	c-0.165,0.096-0.669,0.39-1.342,0c-0.672-0.388-0.672-0.972-0.672-1.163v-27.296c0-0.191,0-0.775,0.671-1.162
	c0.253-0.146,0.482-0.195,0.679-0.195c0.325,0,0.561,0.136,0.664,0.195l23.639,13.647c0.167,0.096,0.672,0.388,0.672,1.163
	S148.891,118.054,148.725,118.149z"/>
<path d="M256,445c-2.63,0-5.21,1.069-7.07,2.93S246,452.37,246,455s1.069,5.21,2.93,7.069c1.86,1.86,4.44,2.931,7.07,2.931
	s5.21-1.07,7.069-2.931C264.93,460.21,266,457.63,266,455s-1.07-5.21-2.931-7.07C261.21,446.069,258.63,445,256,445z"/>
<g>
</g>
<g>
</g>
<g>
</g>
<g>
</g>
<g>
</g>
<g>
</g>
<g>
</g>
<g>
</g>
<g>
</g>
<g>
</g>
<g>
</g>
<g>
</g>
<g>
</g>
<g>
</g>
<g>
</g>
</svg>
