<?xml version="1.0" encoding="iso-8859-1"?>
<!-- Generator: Adobe Illustrator 19.0.0, SVG Export Plug-In . SVG Version: 6.00 Build 0)  -->
<svg version="1.1" id="Capa_1" xmlns="http://www.w3.org/2000/svg" xmlns:xlink="http://www.w3.org/1999/xlink" x="0px" y="0px"
	 viewBox="0 0 512 512" style="enable-background:new 0 0 512 512;" xml:space="preserve">
<path style="fill:#126099;" d="M512,345.696l-9.065-15.955L314.108,431.996l-34.176-62.368L108.782,53.254
	c-7.896-14.586-23.125-23.696-39.705-23.751H0v18.13h69.076c9.954,0.027,19.1,5.484,23.841,14.232l115.581,213.756v138.244
	c0.054,29.099,23.66,52.669,52.759,52.669c5.258,0.127,10.516-0.517,15.592-1.904l36.261-11.241l0,0l1.722-0.635L512,345.696z
	 M271.955,446.501c-18.194,5.91-37.729-4.043-43.631-22.237c-1.088-3.363-1.659-6.862-1.695-10.398V309.164l37.348,69.167
	l33.178,60.555L271.955,446.501z"/>
<rect x="193.255" y="59.564" transform="matrix(-0.8716 0.4903 -0.4903 -0.8716 587.4479 131.6814)" style="fill:#FDB62F;" width="166.443" height="166.443"/>
<rect x="225.881" y="66.471" transform="matrix(-0.866 0.5 -0.5 -0.866 508.3552 42.05)" style="fill:#FD7B2F;" width="45.325" height="45.325"/>
<rect x="274.863" y="204.62" transform="matrix(-0.8716 0.4903 -0.4903 -0.8716 811.3013 363.1529)" style="fill:#FDB62F;" width="166.443" height="166.443"/>
<rect x="307.415" y="211.537" transform="matrix(-0.866 0.5 -0.5 -0.866 733.0328 271.9777)" style="fill:#FD7B2F;" width="45.325" height="45.325"/>
<g>
	<polygon style="fill:#FFA230;" points="389.802,174.546 330.878,69.753 229.076,228.212 244.759,256.132 	"/>
	<polygon style="fill:#FFA230;" points="471.388,319.589 412.465,214.795 310.663,373.254 326.346,401.175 	"/>
</g>
<circle style="fill:#CFCFCF;" cx="271.955" cy="428.416" r="54.391"/>
<path style="fill:#126099;" d="M271.955,455.566c-15.021,0-27.195-12.174-27.195-27.195c0-15.021,12.174-27.195,27.195-27.195l0,0
	c7.207,0.009,14.124,2.874,19.218,7.977c5.104,5.095,7.968,12.011,7.977,19.218l0,0C299.15,443.382,286.976,455.566,271.955,455.566
	L271.955,455.566z M271.955,419.305c-5.004,0-9.065,4.061-9.065,9.065c0,5.004,4.061,9.065,9.065,9.065s9.065-4.061,9.065-9.065l0,0
	c-0.009-2.42-0.988-4.741-2.72-6.436C276.614,420.257,274.33,419.314,271.955,419.305z"/>
<path d="M271.955,401.175c-15.021,0-27.195,12.174-27.195,27.195c0,15.021,12.174,27.195,27.195,27.195s27.195-12.174,27.195-27.195
	l0,0C299.15,413.349,286.976,401.175,271.955,401.175z M271.955,437.436c-5.004,0-9.065-4.061-9.065-9.065
	c0-5.004,4.061-9.065,9.065-9.065s9.065,4.061,9.065,9.065C281.02,433.374,276.959,437.436,271.955,437.436z"/>
<path d="M92.918,61.866l115.581,213.756V428.37c0.154,35.046,28.691,63.329,63.737,63.175c28.863-0.127,54.001-19.717,61.181-47.674
	L512,345.696l-9.065-15.955l-167.524,92.555c-0.517-4.741-1.514-9.419-2.992-13.96l143.683-80.861
	c4.351-2.457,5.892-7.968,3.445-12.329L397.96,170.104L316.374,25.062c-2.457-4.351-7.968-5.892-12.329-3.445l-50.674,28.465h-0.816
	l-11.875,6.89l-81.586,45.96c-4.351,2.457-5.892,7.968-3.445,12.329l81.586,145.043l61.915,110.776
	c-6.781-3.381-14.124-5.475-21.666-6.164L108.782,53.254c-7.896-14.586-23.125-23.696-39.705-23.751H0v18.13h69.076
	C79.03,47.652,88.177,53.109,92.918,61.866z M226.629,309.164l31.003,57.473c-11.794,2.701-22.554,8.739-31.003,17.405V309.164z
	 M271.955,473.696c-25.029,0-45.326-20.297-45.326-45.326c0-25.029,20.297-45.326,45.326-45.326s45.326,20.297,45.326,45.326
	C317.28,453.399,296.984,473.696,271.955,473.696z M348.646,239.181l-23.479,13.598l-13.598-23.841l19.581-11.331l3.989-2.266
	L348.646,239.181z M267.059,94.138l-23.479,13.598l-13.598-23.841l19.581-11.331l3.989-2.266L267.059,94.138z M214.028,92.96
	l18.13,31.819c2.484,4.351,8.014,5.865,12.365,3.381c0.018-0.009,0.036-0.018,0.054-0.027l39.252-22.663
	c4.406-2.384,6.046-7.887,3.662-12.283c-0.036-0.073-0.082-0.154-0.127-0.227l-18.13-31.184l35.445-19.943l72.521,129.269
	l-42.788,24.023h-0.816l-11.875,6.89l-9.065,5.167l-64.635,36.261l-72.521-129.269L214.028,92.96z M295.615,238.002l18.13,31.819
	c2.484,4.351,8.014,5.865,12.365,3.381c0.018-0.009,0.036-0.018,0.054-0.027l39.252-22.663c4.406-2.384,6.046-7.887,3.662-12.283
	c-0.036-0.073-0.082-0.154-0.127-0.227l-18.13-31.184l35.445-19.943l72.521,129.269l-129.269,72.521l-72.521-129.269
	L295.615,238.002z"/>
<g>
</g>
<g>
</g>
<g>
</g>
<g>
</g>
<g>
</g>
<g>
</g>
<g>
</g>
<g>
</g>
<g>
</g>
<g>
</g>
<g>
</g>
<g>
</g>
<g>
</g>
<g>
</g>
<g>
</g>
</svg>
