<?xml version="1.0" encoding="iso-8859-1"?>
<!-- Generator: Adobe Illustrator 19.0.0, SVG Export Plug-In . SVG Version: 6.00 Build 0)  -->
<svg version="1.1" id="Capa_1" xmlns="http://www.w3.org/2000/svg" xmlns:xlink="http://www.w3.org/1999/xlink" x="0px" y="0px"
	 viewBox="0 0 512 512" style="enable-background:new 0 0 512 512;" xml:space="preserve">
<rect x="51.826" y="70.288" width="112.29" height="17.275"/>
<rect x="17.275" y="70.288" width="17.275" height="17.275"/>
<rect x="86.377" y="139.415" width="17.275" height="17.275"/>
<rect y="139.415" width="69.102" height="17.275"/>
<rect x="43.189" y="208.517" width="86.377" height="17.275"/>
<rect x="17.275" y="277.618" width="146.841" height="17.275"/>
<rect x="34.551" y="346.72" width="69.102" height="17.275"/>
<rect y="346.72" width="17.275" height="17.275"/>
<rect x="17.275" y="415.822" width="60.464" height="17.275"/>
<path style="fill:#383856;" d="M393.016,27.099h38.87v25.913c-27.537,0.009-53.951,10.901-73.481,30.31
	c-2.764-5.373-4.224-11.315-4.258-17.353C354.146,44.504,371.551,27.099,393.016,27.099z"/>
<path style="fill:#FFD33F;" d="M431.885,65.969c0.052,21.413-17.258,38.809-38.662,38.87c-14.753,0.035-28.245-8.301-34.819-21.517
	c19.53-19.4,45.944-30.301,73.481-30.31V65.969z"/>
<path style="fill:#EA3836;" d="M198.667,329.419l-71.382,64.247c-8.491,7.636-9.743,20.489-2.894,29.627l0,0
	c7.316,9.752,21.154,11.721,30.897,4.405c0.242-0.181,0.484-0.371,0.726-0.57l77.204-63.159l51.826-51.826l69.102,51.826
	l-13.82,96.69c-1.658,11.609,6.418,22.372,18.027,24.021c0.985,0.138,1.987,0.216,2.989,0.216h0.527
	c10.521,0.052,19.573-7.42,21.525-17.759c7.031-37.306,22.579-120.444,22.579-120.444l-69.102-60.464l-77.739-43.189
	L198.667,329.419z"/>
<path style="fill:#91CECE;" d="M456.606,200.441l-16.083,8.05l-51.826-69.102l-51.826-34.551L224.58,87.563l-48.458,48.276
	l25.999,29.696l39.733-34.784l60.464,17.275l-43.189,95.015l77.739,43.189l34.551-95.015l60.464,69.102l41.936-18.545
	L456.606,200.441z"/>
<g>
	<path style="fill:#FFD33F;" d="M501.773,206.133l-0.225-0.544c-4.604-11.678-17.802-17.405-29.48-12.801
		c-0.622,0.25-1.244,0.518-1.84,0.821l-13.622,6.832l17.215,41.331l16.412-7.247C501.091,229.705,506.195,217.163,501.773,206.133z"
		/>
	<path style="fill:#FFD33F;" d="M160.186,151.715c-7.506,7.342-7.636,19.366-0.302,26.872c7.092,7.256,18.632,7.653,26.215,0.916
		l16.023-13.967l-25.999-29.696L160.186,151.715z"/>
</g>
<path style="fill:#FFAC3E;" d="M161.18,179.486c7.152,6.228,17.802,6.228,24.954,0l15.988-13.95l-9.959-11.385L161.18,179.486z"/>
<g>
	<polygon style="fill:#83B2B7;" points="241.856,113.476 192.146,154.151 202.105,165.536 241.856,130.752 302.32,148.027 
		310.957,130.752 	"/>
	<polygon style="fill:#83B2B7;" points="437.197,239.241 380.059,173.94 371.421,191.216 431.885,260.317 473.821,241.772 
		467.17,225.792 	"/>
</g>
<path style="fill:#FFAC3E;" d="M467.17,225.766l6.651,15.98l16.412-7.247c9.536-4.224,14.805-14.546,12.628-24.747L467.17,225.766z"
	/>
<polygon style="fill:#83B2B7;" points="297.284,264.239 336.871,286.23 371.421,191.216 380.059,173.94 "/>
<g>
	<path style="fill:#EA3836;" d="M343.357,474.791c-0.337-0.544-0.656-1.097-0.942-1.667
		C342.701,473.669,343.021,474.247,343.357,474.791z"/>
	<path style="fill:#EA3836;" d="M349.032,480.898c-0.605-0.449-1.183-0.933-1.728-1.451
		C347.858,479.965,348.428,480.449,349.032,480.898z"/>
	<path style="fill:#EA3836;" d="M345.906,478.143c-0.475-0.51-0.864-1.054-1.322-1.598
		C345.007,477.124,345.431,477.633,345.906,478.143z"/>
	<path style="fill:#EA3836;" d="M341.483,470.922c-0.199-0.544-0.415-1.088-0.57-1.65
		C341.068,469.842,341.284,470.378,341.483,470.922z"/>
	<path style="fill:#EA3836;" d="M340.395,466.534c-0.06-0.484-0.173-0.959-0.207-1.451
		C340.222,465.575,340.326,466.05,340.395,466.534z"/>
	<path style="fill:#EA3836;" d="M356.236,484.241c-2.073-0.544-4.042-1.399-5.856-2.531
		C352.194,482.85,354.163,483.706,356.236,484.241z"/>
</g>
<g>
	<path style="fill:#D62121;" d="M342.416,473.124c-0.354-0.717-0.665-1.451-0.933-2.203
		C341.751,471.673,342.062,472.407,342.416,473.124z"/>
	<path style="fill:#D62121;" d="M347.296,479.447c-0.475-0.423-0.959-0.864-1.391-1.304
		C346.372,478.601,346.821,479.015,347.296,479.447z"/>
	<path style="fill:#D62121;" d="M350.38,481.71c-0.449-0.268-0.924-0.501-1.347-0.812
		C349.456,481.209,349.931,481.442,350.38,481.71z"/>
	<path style="fill:#D62121;" d="M340.913,469.272c-0.233-0.898-0.406-1.814-0.518-2.738
		C340.507,467.458,340.68,468.374,340.913,469.272z"/>
	<path style="fill:#D62121;" d="M340.187,465.083c-0.104-1.477-0.06-2.954,0.138-4.423
		C340.127,462.129,340.075,463.614,340.187,465.083z"/>
	<path style="fill:#D62121;" d="M344.584,476.545c-0.441-0.553-0.846-1.132-1.227-1.728
		C343.781,475.396,344.143,475.975,344.584,476.545z"/>
	<polygon style="fill:#D62121;" points="356.254,484.241 356.254,484.241 356.236,484.241 	"/>
	<path style="fill:#D62121;" d="M336.871,286.23l-38.87-21.594l90.696,90.696l-30.163,129.255c0.924,0.173,1.866,0.276,2.807,0.311
		h0.527c10.521,0.052,19.573-7.42,21.525-17.759c7.031-37.306,22.579-120.444,22.579-120.444L336.871,286.23z"/>
	<path style="fill:#D62121;" d="M215.943,355.332l-90.445,69.162c7.791,8.983,21.301,10.149,30.517,2.643l77.204-63.168
		l51.826-51.826l-17.275-8.638L215.943,355.332z"/>
</g>
<path style="fill:#FFAC3E;" d="M423.248,53.435v3.896c0,21.465-17.405,38.87-38.87,38.87c-8.145-0.009-16.075-2.634-22.622-7.48
	c12.464,17.362,36.641,21.326,54.003,8.862c10.175-7.307,16.187-19.089,16.127-31.614V53.012
	C428.992,53.012,426.115,53.202,423.248,53.435z"/>
<path style="fill:#202033;" d="M431.885,27.099c0.38,9.536-2.686,18.882-8.638,26.336c2.868-0.233,5.744-0.423,8.638-0.423V27.099z"
	/>
<path d="M509.573,202.375c-6.401-16.109-24.643-23.978-40.744-17.578c-0.829,0.328-1.641,0.691-2.444,1.088l-23.27,11.652
	l-47.507-63.332c-0.587-0.786-1.304-1.46-2.116-2.004l-51.826-34.551c-1.037-0.691-2.22-1.157-3.455-1.347l-112.29-17.275
	c-2.712-0.415-5.468,0.484-7.411,2.419L154.114,145.6c-10.814,10.771-10.849,28.271-0.078,39.086
	c0.026,0.026,0.052,0.052,0.078,0.078c10.313,10.244,26.786,10.789,37.755,1.244l52.18-45.659l46.298,13.233l-38.749,85.142
	l-59.445,84.917l-70.656,63.582c-12.87,11.056-14.339,30.448-3.282,43.309c11.056,12.862,30.448,14.339,43.318,3.291l77.843-63.746
	l46.531-46.531l59.013,44.268l-13.129,91.629c-1.227,8.569,1.322,17.25,6.997,23.788c5.83,6.668,14.287,10.434,23.14,10.305
	c14.667,0.017,27.269-10.4,30.007-24.807l22.579-120.444c0.561-2.997-0.501-6.072-2.799-8.085l-64.696-56.56l27.537-75.718
	l50.842,58.106c2.488,2.842,6.53,3.732,9.985,2.211l58.322-25.792C509.029,235.657,516.094,217.828,509.573,202.375z
	 M486.709,226.63L434.2,249.848l-56.283-64.325c-3.144-3.585-8.603-3.947-12.188-0.803c-1.097,0.959-1.926,2.177-2.427,3.541
	l-34.551,95.015c-1.218,3.351-0.25,7.1,2.427,9.45l65.396,57.225l-21.698,115.598c-1.296,6.392-7.014,10.918-13.535,10.711
	c-6.953,0-12.594-5.64-12.594-12.594c0-0.596,0.043-1.192,0.13-1.779l13.82-96.69c0.449-3.127-0.846-6.245-3.369-8.137
	l-69.102-51.826c-3.438-2.583-8.249-2.237-11.289,0.803l-51.187,51.247l-77.204,63.168c-5.71,4.733-14.174,3.939-18.899-1.771
	c-4.613-5.571-3.991-13.794,1.417-18.597l71.382-64.247c0.484-0.441,0.924-0.933,1.296-1.468l60.464-86.377
	c0.302-0.432,0.57-0.89,0.786-1.373l43.189-95.015c1.969-4.345,0.052-9.467-4.293-11.436c-0.389-0.173-0.786-0.32-1.192-0.441
	l-60.464-17.275c-2.825-0.821-5.865-0.138-8.068,1.805l-55.713,48.751c-4.189,3.913-10.754,3.688-14.675-0.492
	c-3.913-4.189-3.688-10.754,0.501-14.675l61.328-61.077l106.08,16.325l48.967,32.668l50.962,67.918
	c2.505,3.343,7.04,4.414,10.771,2.548l29.722-14.9c3.498-1.762,7.567-1.969,11.229-0.579c3.913,1.529,6.971,4.682,8.387,8.638
	C496.409,216.083,493.308,223.711,486.709,226.63z"/>
<path d="M440.523,65.969v-38.87c0-4.768-3.87-8.638-8.638-8.638h-38.87c-26.241,0-47.507,21.266-47.507,47.507
	s21.266,47.507,47.507,47.507S440.523,92.21,440.523,65.969z M393.016,35.737h30.232v8.741
	c-22.121,0.406-43.439,8.413-60.343,22.691c0-0.406-0.121-0.786-0.121-1.201C362.784,49.272,376.319,35.737,393.016,35.737z
	 M369.383,84.592c14.382-14.209,33.652-22.38,53.865-22.838v4.215c0.069,16.628-13.363,30.163-29.99,30.232
	C383.929,96.235,375.11,91.951,369.383,84.592z"/>
<g>
</g>
<g>
</g>
<g>
</g>
<g>
</g>
<g>
</g>
<g>
</g>
<g>
</g>
<g>
</g>
<g>
</g>
<g>
</g>
<g>
</g>
<g>
</g>
<g>
</g>
<g>
</g>
<g>
</g>
</svg>
