<?xml version="1.0" encoding="iso-8859-1"?>
<!-- Generator: Adobe Illustrator 19.0.0, SVG Export Plug-In . SVG Version: 6.00 Build 0)  -->
<svg version="1.1" id="Capa_1" xmlns="http://www.w3.org/2000/svg" xmlns:xlink="http://www.w3.org/1999/xlink" x="0px" y="0px"
	 viewBox="0 0 512.001 512.001" style="enable-background:new 0 0 512.001 512.001;" xml:space="preserve">
<circle style="fill:#FEA02C;" cx="436" cy="76" r="66"/>
<rect x="28" y="392" style="fill:#62CD4D;" width="80" height="110"/>
<rect x="280" y="266" style="fill:#EF3C3C;" width="80" height="236"/>
<rect x="404" y="200" style="fill:#FEA02C;" width="80" height="302"/>
<rect x="152" y="328" style="fill:#2E9DE3;" width="80" height="174"/>
<path d="M502,492.001h-8v-292c0-5.523-4.477-10-10-10h-80c-5.523,0-10,4.477-10,10v107c0,5.523,4.477,10,10,10s10-4.477,10-10v-97
	h60v282h-60v-87.015c0-5.523-4.477-10-10-10s-10,4.477-10,10v87.015h-24v-226c0-5.523-4.477-10-10-10h-80c-5.523,0-10,4.477-10,10
	v226h-28v-164c0-5.523-4.477-10-10-10h-80c-5.523,0-10,4.477-10,10v164h-24v-100c0-5.523-4.477-10-10-10H28c-5.523,0-10,4.477-10,10
	v100h-8c-5.523,0-10,4.477-10,10s4.477,10,10,10h492c5.523,0,10-4.477,10-10S507.523,492.001,502,492.001z M38,492.001v-90h60v90H38
	z M162,492.001v-154h60v154H162z M290,492.001v-216h60v216H290z"/>
<path d="M404,363.901c2.63,0,5.21-1.07,7.07-2.93c1.86-1.87,2.93-4.44,2.93-7.07c0-2.64-1.07-5.22-2.93-7.08s-4.44-2.92-7.07-2.92
	s-5.21,1.06-7.07,2.92c-1.86,1.86-2.93,4.44-2.93,7.08c0,2.63,1.07,5.2,2.93,7.07C398.79,362.832,401.37,363.901,404,363.901z"/>
<path d="M436.001,152c41.907,0,76-34.093,76-76s-34.093-76-76-76s-76,34.093-76,76S394.095,152,436.001,152z M492.001,76
	c0,27.464-19.879,50.357-46,55.088v-7.537c12.391-3.921,21.341-14.909,21.341-27.826c0-16.193-14.06-29.368-31.341-29.368
	c-6.253,0-11.341-4.203-11.341-9.368s5.087-9.368,11.341-9.368s11.341,4.203,11.341,9.368c0,5.523,4.477,10,10,10s10-4.477,10-10
	c0-12.917-8.95-23.905-21.341-27.826v-8.251C472.123,25.643,492.001,48.536,492.001,76z M426.001,20.912v8.251
	c-12.391,3.921-21.341,14.909-21.341,27.826c0,16.194,14.06,29.368,31.341,29.368c6.253,0,11.341,4.202,11.341,9.368
	s-5.087,9.368-11.341,9.368s-11.341-4.203-11.341-9.368c0-5.523-4.477-10-10-10s-10,4.477-10,10c0,12.917,8.95,23.905,21.341,27.826
	v7.537c-26.121-4.731-46-27.624-46-55.088S399.88,25.643,426.001,20.912z"/>
<path d="M54.789,327.791c2.559,0,5.119-0.977,7.071-2.929l101.683-101.683l54.321,54.321c3.905,3.905,10.237,3.905,14.143,0
	l113.991-113.991v15.008c0,5.523,4.477,10,10,10s10-4.477,10-10v-39.15c0-5.523-4.477-10-10-10h-39.15c-5.523,0-10,4.477-10,10
	s4.477,10,10,10h15.007l-106.919,106.92l-54.321-54.321c-3.905-3.904-10.237-3.904-14.143,0L47.718,310.719
	c-3.905,3.905-3.905,10.237,0,14.142C49.67,326.814,52.23,327.791,54.789,327.791z"/>
<path d="M28.79,353.792c2.63,0,5.21-1.07,7.07-2.93s2.93-4.44,2.93-7.07s-1.07-5.21-2.93-7.07c-1.86-1.86-4.44-2.93-7.07-2.93
	s-5.21,1.07-7.07,2.93s-2.93,4.44-2.93,7.07s1.07,5.21,2.93,7.07C23.58,352.721,26.16,353.792,28.79,353.792z"/>
<g>
</g>
<g>
</g>
<g>
</g>
<g>
</g>
<g>
</g>
<g>
</g>
<g>
</g>
<g>
</g>
<g>
</g>
<g>
</g>
<g>
</g>
<g>
</g>
<g>
</g>
<g>
</g>
<g>
</g>
</svg>
