<?xml version="1.0" encoding="iso-8859-1"?>
<!-- Generator: Adobe Illustrator 19.0.0, SVG Export Plug-In . SVG Version: 6.00 Build 0)  -->
<svg xmlns="http://www.w3.org/2000/svg" xmlns:xlink="http://www.w3.org/1999/xlink" version="1.1" id="Layer_1" x="0px" y="0px" viewBox="0 0 512 512" style="enable-background:new 0 0 512 512;" xml:space="preserve" width="512" height="512">
<g>
	<g>
		<path style="fill:#EFEDEE;" d="M130.859,278.594l-7.113,90.375l37.234,34.679h0c19.177,0,34.723-15.546,34.723-34.723v-69.313    L130.859,278.594z"/>
		<path style="fill:#D2D2D2;" d="M125.323,348.929c7.073,1.77,14.447,3.31,22.129,4.61c2.06,0.349,4.155,0.683,6.286,1.002    c8.575,1.284,17.648,2.306,26.967,3.037c4.873,0.382,9.885,0.686,14.999,0.919v-58.885l-64.845-21.018L125.323,348.929z"/>
		<path style="fill:#506366;" d="M165.233,325.846c0,0-12.495,24.243-5.167,72.682c2.246,14.844,7.75,29.014,16,41.557l0,0    c6.623,10.068-0.599,23.463-12.65,23.463h-59.139c-26.272,0,5.254-113.494-35.369-174.92L165.233,325.846z"/>
		<circle style="fill:#EFEDEE;" cx="45.87" cy="226.05" r="38.371"/>
		<path style="fill:#D2D2D2;" d="M45.87,234.421c-15.869,0-29.486-9.634-35.326-23.371c-1.959,4.608-3.044,9.677-3.044,15    c0,21.192,17.179,38.371,38.371,38.371c21.192,0,38.371-17.179,38.371-38.371c0-5.323-1.085-10.392-3.044-15    C75.356,224.787,61.739,234.421,45.87,234.421z"/>
		<path style="fill:#EFEDEE;" d="M451.065,75.166c0,0-74.612,47.899-231.192,47.899h-1.051L177.852,226.05l40.971,102.985h1.051    c156.58,0,231.192,47.899,231.192,47.899l26.713-150.884L451.065,75.166z"/>
		<path style="fill:#D2D2D2;" d="M451.065,346.934c0,0-74.612-47.899-231.192-47.899h-1.051c-4.099-0.008-8.089-0.069-12.001-0.167    l12.001,30.167l0,0h1.051c156.58,0,231.192,47.899,231.192,47.899l26.713-150.884l-2.656-15L451.065,346.934z"/>
		<path style="fill:#FD6F71;" d="M477.782,48.453c-14.755,0-26.717,11.962-26.717,26.717v301.76    c0,14.755,11.962,26.717,26.717,26.717S504.5,391.686,504.5,376.93V75.17C504.5,60.415,492.538,48.453,477.782,48.453z"/>
		<path style="fill:#E36465;" d="M477.783,373.647c-14.755,0-26.717-11.962-26.717-26.717v30c0,14.755,11.962,26.717,26.717,26.717    c14.755,0,26.717-11.962,26.717-26.717v-30C504.5,361.686,492.538,373.647,477.783,373.647z"/>
		<path style="fill:#FD6F71;" d="M218.823,123.065v205.971C54.572,328.72,42.749,254.581,42.896,232.303    c0.031-4.172,0.031-8.333,0-12.505C42.749,197.519,54.572,123.38,218.823,123.065z"/>
		<path style="fill:#3A484A;" d="M86.745,335.59c17.438,8.054,37.72,14.059,60.707,17.949c2.06,0.349,4.155,0.683,6.286,1.002    c1.532,0.229,3.097,0.44,4.659,0.653c1.8-19.551,6.836-29.348,6.836-29.348l-96.324-37.219    C77.956,302.307,83.419,318.573,86.745,335.59z"/>
		<path style="fill:#E36465;" d="M43.431,211.05c-0.208,1.66-0.342,3.213-0.425,4.649c-0.004,0.07-0.008,0.14-0.012,0.209    c-0.036,0.664-0.061,1.302-0.077,1.911c-0.002,0.084-0.003,0.165-0.005,0.247c-0.013,0.604-0.019,1.188-0.015,1.732    c0.031,4.172,0.031,8.333,0,12.505c-0.005,0.696,0.003,1.443,0.026,2.237c0.058,1.984,0.215,4.261,0.539,6.77    c0.13,1.004,0.286,2.045,0.474,3.119c4.217,24.172,24.116,65.246,108.523,79.531c1.876,0.317,3.783,0.622,5.723,0.912    c7.76,1.162,16.038,2.105,24.869,2.797c11.038,0.866,22.94,1.341,35.772,1.366v-30C72.086,298.754,47.006,239.557,43.431,211.05z"/>
	</g>
	<g>
		<path d="M257.771,236.816c4.142,0,7.5-3.358,7.5-7.5v-14.008c0-4.142-3.358-7.5-7.5-7.5s-7.5,3.358-7.5,7.5v14.008    C250.271,233.458,253.628,236.816,257.771,236.816z"/>
		<path d="M412.573,236.816c4.142,0,7.5-3.358,7.5-7.5v-14.008c0-4.142-3.358-7.5-7.5-7.5s-7.5,3.358-7.5,7.5v14.008    C405.073,233.458,408.431,236.816,412.573,236.816z"/>
		<path d="M335.171,244.293c9.61,0,18.631-4.015,24.75-11.016c2.726-3.119,2.408-7.856-0.711-10.583    c-3.118-2.726-7.856-2.408-10.583,0.711c-3.271,3.741-8.175,5.887-13.457,5.887c-5.281,0-10.186-2.146-13.457-5.888    c-2.726-3.119-7.464-3.438-10.583-0.711c-3.119,2.726-3.437,7.464-0.711,10.583C316.541,240.278,325.562,244.293,335.171,244.293z    "/>
		<path d="M45.956,271.918c3.558,6.272,8.269,12.7,14.49,18.975c0.86,0.868,1.745,1.72,2.644,2.563    c20.786,32.112,21.201,81.046,21.497,116.85c0.129,15.668,0.241,29.2,1.881,39.269c2.32,14.248,8.313,21.472,17.81,21.472h59.139    c8.336,0,15.973-4.559,19.929-11.896c3.957-7.338,3.568-16.223-1.013-23.188c-5.253-7.985-9.317-16.763-12.016-25.869    c18.802-4.263,32.887-21.097,32.887-41.17v-32.656c5.096,0.162,10.29,0.257,15.605,0.267c0.005,0,0.009,0,0.014,0h1.051    c79.504,0,137.041,12.708,171.308,23.368c28.436,8.846,45.967,17.773,52.688,21.513c2.205,16.754,16.568,29.731,33.913,29.731    c18.868,0,34.217-15.35,34.217-34.217V138.705c0-4.142-3.358-7.5-7.5-7.5s-7.5,3.358-7.5,7.5V376.93    c0,10.596-8.621,19.217-19.217,19.217s-19.217-8.621-19.217-19.217V75.17c0-10.596,8.621-19.217,19.217-19.217    S497,64.574,497,75.17v33.535c0,4.142,3.358,7.5,7.5,7.5s7.5-3.358,7.5-7.5V75.17c0-18.868-15.35-34.217-34.217-34.217    c-17.346,0-31.708,12.977-33.913,29.73c-15.529,8.628-88.856,44.881-223.996,44.881h-1.051c-0.004,0-0.01,0-0.014,0    c-75.197,0.145-128.478,15.5-158.363,45.643c-6.222,6.275-10.932,12.702-14.49,18.975c-0.028,0-0.058-0.003-0.085-0.003    C20.578,180.179,0,200.757,0,226.05s20.578,45.871,45.871,45.871C45.898,271.921,45.928,271.918,45.956,271.918z M170.143,452.032    c-0.651,1.208-2.609,4.015-6.726,4.015h-59.139c-0.027,0-0.049,0-0.068-0.001c-0.365-0.323-2.315-2.494-3.454-12.703    c-0.968-8.679-1.062-20.024-1.17-33.161c-0.242-29.288-0.553-66.931-11.58-99.049c18.074,9.751,40.447,16.719,67.017,20.859    c-0.477-0.074-2.587,11.081-2.764,12.099c-0.774,4.464-1.303,8.969-1.625,13.488c-1.128,15.85-0.18,31.985,2.996,47.564    c0.004,0.018,0.01,0.035,0.013,0.053c2.828,13.767,8.357,27.152,16.157,39.008C172.064,447.645,170.794,450.825,170.143,452.032z     M188.204,368.924c0,12.871-8.978,23.683-21,26.505c-0.298-2.108-0.574-4.219-0.807-6.336c-0.756-6.896-1.162-13.837-1.11-20.775    c0.123-16.942,2.912-28.422,4.829-34.336c5.849,0.645,11.879,1.168,18.087,1.568V368.924z M71.098,171.768    c25.632-25.852,74.026-40.023,140.225-41.134v128.071c0,4.142,3.358,7.5,7.5,7.5s7.5-3.358,7.5-7.5V130.537    c78.504-0.671,135.667-13.477,170.106-24.265c21.896-6.859,37.533-13.722,47.137-18.485v276.525    c-9.604-4.764-25.24-11.626-47.137-18.485c-34.439-10.788-91.602-23.594-170.106-24.265v-32.857c0-4.142-3.358-7.5-7.5-7.5    s-7.5,3.358-7.5,7.5v32.76c-6.324-0.106-12.644-0.346-18.958-0.707c-50.6-2.956-89.275-14.336-113.407-33.424    c-0.043-0.034-0.085-0.068-0.128-0.102c-16.646-13.213-28.578-33.211-28.432-54.873c0.031-4.186,0.031-8.432,0-12.612    C50.262,201.659,58.51,184.465,71.098,171.768z M15,226.05c0-14.69,10.313-27.016,24.08-30.118    c-1.505,4.767-2.43,9.241-2.977,13.258c-0.003,0.022-0.006,0.044-0.009,0.067c-0.744,5.766-0.673,11.593-0.674,17.395    c-0.001,5.398-0.08,10.841,0.675,16.2c0.002,0.017,0.004,0.035,0.007,0.052c0.547,4.018,1.472,8.494,2.978,13.263    C25.313,253.066,15,240.74,15,226.05z"/>
	</g>
</g>















</svg>
