<?xml version="1.0" encoding="iso-8859-1"?>
<!-- Generator: Adobe Illustrator 19.0.0, SVG Export Plug-In . SVG Version: 6.00 Build 0)  -->
<svg version="1.1" id="Capa_1" xmlns="http://www.w3.org/2000/svg" xmlns:xlink="http://www.w3.org/1999/xlink" x="0px" y="0px"
	 viewBox="0 0 512 512" style="enable-background:new 0 0 512 512;" xml:space="preserve">
<path style="fill:#545454;" d="M271,504.5h-30v-482c0-8.284,6.716-15,15-15l0,0c8.284,0,15,6.716,15,15V504.5z"/>
<path style="fill:#666666;" d="M149.5,442c-35.841,0-65-29.159-65-65s29.159-65,65-65s65,29.159,65,65S185.341,442,149.5,442z"/>
<path style="fill:#545454;" d="M149.5,312c-5.163,0-10.181,0.623-15,1.766c28.63,6.792,50,32.556,50,63.234
	s-21.369,56.442-50,63.233c4.819,1.143,9.837,1.767,15,1.767c35.841,0,65-29.159,65-65S185.341,312,149.5,312z"/>
<circle style="fill:#FF444A;" cx="149.5" cy="377" r="35"/>
<path style="fill:#666666;" d="M362.5,442c-35.841,0-65-29.159-65-65s29.159-65,65-65s65,29.159,65,65S398.341,442,362.5,442z"/>
<circle style="fill:#8CC63F;" cx="362.5" cy="377" r="35"/>
<path style="fill:#545454;" d="M362.25,312c-5.163,0-10.181,0.623-15,1.766c28.63,6.792,50,32.556,50,63.234
	s-21.369,56.442-50,63.233c4.819,1.143,9.837,1.767,15,1.767c35.841,0,65-29.159,65-65S398.091,312,362.25,312z"/>
<polygon style="fill:#FFBD00;" points="178.313,274 369,82.469 333.688,47 143,238.531 "/>
<polygon style="fill:#FBD560;" points="333.688,274 143,82.469 178.313,47 369,238.531 "/>
<path d="M233.5,383.5v32.25c0,4.142,3.357,7.5,7.5,7.5s7.5-3.358,7.5-7.5V214.132l7.5-7.533l7.5,7.533v41.618
	c0,4.142,3.357,7.5,7.5,7.5s7.5-3.358,7.5-7.5v-26.551l49.872,50.093c1.408,1.414,3.32,2.208,5.315,2.208s3.907-0.795,5.315-2.208
	l35.313-35.469c2.913-2.926,2.913-7.657,0-10.583l-72.421-72.742l72.42-72.736c2.914-2.926,2.914-7.656,0.001-10.583l-35.31-35.471
	c-1.407-1.414-3.32-2.208-5.315-2.208s-3.907,0.795-5.314,2.208L278.5,91.802V22.5c0-6.018-2.347-11.67-6.588-15.894
	C267.668,2.346,262.017,0,256,0c-12.406,0-22.5,10.093-22.5,22.5v69.301l-49.872-50.093c-1.408-1.414-3.32-2.208-5.315-2.208
	s-3.907,0.795-5.315,2.208l-35.313,35.469c-2.913,2.926-2.913,7.657,0,10.583l17.145,17.22c2.924,2.936,7.672,2.945,10.607,0.023
	s2.945-7.671,0.023-10.606l-11.877-11.929l24.729-24.839l0,0c0.039,0.04-0.04-0.039,0,0L358.416,238.53c0.012,0.012-0.013-0.012,0,0
	c0.01,0.01,0,0,0.01,0.01l-0.01-0.01l-24.729,24.839l0,0c-0.038-0.039,0.001-0.001-0.038-0.039l0,0
	c-0.011-0.011-107.656-108.135-107.667-108.146c-0.009-0.009,107.677,108.156,107.667,108.146L189.24,118.283
	c-2.924-2.937-7.672-2.946-10.607-0.023c-2.935,2.922-2.945,7.671-0.023,10.606l31.496,31.636l-72.42,72.736
	c-2.914,2.926-2.914,7.656-0.001,10.583l35.31,35.471c1.407,1.414,3.32,2.208,5.315,2.208s3.907-0.795,5.314-2.208l49.876-50.094
	V368.5h-12.015c-4.224-35.984-34.885-64-71.985-64c-39.977,0-72.5,32.523-72.5,72.5s32.523,72.5,72.5,72.5
	c37.785,0,68.894-29.059,72.194-66H233.5z M333.689,57.63l24.728,24.839l-67.105,67.399l-24.729-24.838L333.689,57.63z M248.5,22.5
	c0-4.136,3.364-7.5,7.5-7.5c2,0,3.877,0.779,5.307,2.214c1.414,1.409,2.193,3.286,2.193,5.286v84.368l-7.5,7.533l-7.5-7.533V22.5z
	 M178.311,263.37l-24.728-24.839l67.105-67.399l24.729,24.839L178.311,263.37z M149.5,434.5c-31.706,0-57.5-25.794-57.5-57.5
	s25.794-57.5,57.5-57.5S207,345.294,207,377S181.206,434.5,149.5,434.5z"/>
<path d="M149.5,334.5c-23.435,0-42.5,19.065-42.5,42.5s19.065,42.5,42.5,42.5S192,400.435,192,377S172.935,334.5,149.5,334.5z
	 M149.5,404.5c-15.163,0-27.5-12.336-27.5-27.5s12.337-27.5,27.5-27.5S177,361.836,177,377S164.663,404.5,149.5,404.5z"/>
<path d="M362.5,304.5c-37.1,0-67.761,28.016-71.985,64H278.5v-80.75c0-4.142-3.357-7.5-7.5-7.5s-7.5,3.358-7.5,7.5V497h-15v-49
	c0-4.142-3.357-7.5-7.5-7.5s-7.5,3.358-7.5,7.5v56.5c0,4.142,3.357,7.5,7.5,7.5h30c4.143,0,7.5-3.358,7.5-7.5v-121h11.806
	c3.3,36.941,34.409,66,72.194,66c39.977,0,72.5-32.523,72.5-72.5S402.477,304.5,362.5,304.5z M362.5,434.5
	c-31.706,0-57.5-25.794-57.5-57.5s25.794-57.5,57.5-57.5S420,345.294,420,377S394.206,434.5,362.5,434.5z"/>
<path d="M362.5,334.5c-23.435,0-42.5,19.065-42.5,42.5s19.065,42.5,42.5,42.5S405,400.435,405,377S385.935,334.5,362.5,334.5z
	 M362.5,404.5c-15.163,0-27.5-12.336-27.5-27.5s12.337-27.5,27.5-27.5S390,361.836,390,377S377.663,404.5,362.5,404.5z"/>
<g>
</g>
<g>
</g>
<g>
</g>
<g>
</g>
<g>
</g>
<g>
</g>
<g>
</g>
<g>
</g>
<g>
</g>
<g>
</g>
<g>
</g>
<g>
</g>
<g>
</g>
<g>
</g>
<g>
</g>
</svg>
