<svg viewBox="-86 0 512 512" xmlns="http://www.w3.org/2000/svg"><path d="m330 170c0 62.96875-36.46875 117.289062-89.359375 143.398438l-70.640625 188.601562-70.640625-188.601562c-52.890625-26.109376-89.359375-80.429688-89.359375-143.398438 0-88.371094 71.628906-160 160-160s160 71.628906 160 160zm-80 0c0-44.179688-35.820312-80-80-80s-80 35.820312-80 80 35.820312 80 80 80 80-35.820312 80-80zm0 0" fill="#2bbdc4"/><path d="m170 60c5.519531 0 10-4.480469 10-10s-4.480469-10-10-10-10 4.480469-10 10 4.480469 10 10 10zm0 0"/><path d="m170 80c-49.625 0-90 40.375-90 90s40.375 90 90 90 90-40.375 90-90-40.375-90-90-90zm0 160c-38.597656 0-70-31.402344-70-70s31.402344-70 70-70 70 31.402344 70 70-31.402344 70-70 70zm0 0"/><path d="m340 170c0-93.738281-76.261719-170-170-170s-170 76.261719-170 170c0 64.089844 35.867188 121.519531 91.359375 150.550781l64.214844 171.449219h-45.574219c-5.523438 0-10 4.476562-10 10s4.476562 10 10 10h120c5.523438 0 10-4.476562 10-10s-4.476562-10-10-10h-45.574219l64.214844-171.449219c55.445313-29.007812 91.359375-86.410156 91.359375-150.550781zm-108.726562 139.894531-61.273438 163.59375-61.273438-163.597656c-.894531-2.378906-2.660156-4.332031-4.941406-5.457031-51.679687-25.511719-83.785156-77.027344-83.785156-134.433594 0-82.710938 67.289062-150 150-150s150 67.289062 150 150c0 57.40625-32.105469 108.921875-83.785156 134.433594-2.28125 1.125-4.046875 3.078125-4.941406 5.460937zm0 0"/><path d="m206.15625 66.101562c44.167969 15.414063 73.84375 57.167969 73.84375 103.898438 0 5.523438 4.476562 10 10 10s10-4.476562 10-10c0-55.226562-35.066406-104.566406-87.253906-122.78125-5.21875-1.820312-10.917969.933594-12.738282 6.144531-1.820312 5.214844.933594 10.917969 6.148438 12.738281zm0 0"/></svg>